<svg xmlns="http://www.w3.org/2000/svg" width="1200" height="420" viewBox="0 0 1200 420">
  <rect width="1200" height="420" fill="#f8fafc"/>
  <text x="45" y="45" font-family="system-ui" font-size="24" font-weight="700" fill="#172033">Grokking timeline</text>
  <text x="650" y="45" font-family="system-ui" font-size="24" font-weight="700" fill="#172033">Flagged training samples</text>
  <rect x="40" y="65" width="520" height="310" rx="8" fill="white" stroke="#d9e0ea"/>
  <rect x="71" y="96" width="176" height="245" fill="#fef3c7" opacity=".55"/>
  <rect x="247" y="96" width="160" height="245" fill="#dbeafe" opacity=".55"/>
  <rect x="407" y="96" width="120" height="245" fill="#dcfce7" opacity=".6"/>
  <path d="M72 133 C140 130,185 125,245 115 S345 110,405 104 S475 100,525 100" fill="none" stroke="#2563eb" stroke-width="4"/>
  <path d="M72 325 C190 325,300 322,367 310 S407 268,430 190 S470 115,525 103" fill="none" stroke="#16a34a" stroke-width="4"/>
  <text x="85" y="120" font-family="system-ui" font-size="14" fill="#8a6400">memorization</text>
  <text x="272" y="120" font-family="system-ui" font-size="14" fill="#1d4ed8">plateau</text>
  <text x="420" y="120" font-family="system-ui" font-size="14" fill="#15803d">generalization</text>
  <text x="82" y="358" font-family="system-ui" font-size="13" fill="#2563eb">train accuracy</text>
  <text x="215" y="358" font-family="system-ui" font-size="13" fill="#16a34a">test accuracy</text>
  <g transform="translate(640 70)">
    <g fill="#fff" stroke="#d9e0ea">
      <rect x="0" y="0" width="250" height="86" rx="8"/><rect x="270" y="0" width="250" height="86" rx="8"/>
      <rect x="0" y="104" width="250" height="86" rx="8"/><rect x="270" y="104" width="250" height="86" rx="8"/>
      <rect x="0" y="208" width="250" height="86" rx="8"/><rect x="270" y="208" width="250" height="86" rx="8"/>
    </g>
    <g font-family="system-ui" font-size="15" fill="#172033">
      <text x="18" y="30">sample 1842</text><text x="288" y="30">sample 907</text>
      <text x="18" y="134">sample 331</text><text x="288" y="134">sample 4210</text>
      <text x="18" y="238">sample 75</text><text x="288" y="238">sample 2196</text>
    </g>
    <g font-family="ui-monospace" font-size="13" fill="#b42318">
      <text x="18" y="58">forgotten 12× · margin −3.1</text><text x="288" y="58">forgotten 9× · margin −2.7</text>
      <text x="18" y="162">forgotten 8× · margin −2.2</text><text x="288" y="162">forgotten 7× · margin −1.9</text>
      <text x="18" y="266">forgotten 7× · margin −1.6</text><text x="288" y="266">forgotten 6× · margin −1.4</text>
    </g>
  </g>
</svg>

